HIERARCHY
ROOT mixamorig:Hips
{
	OFFSET 0.000000 201.639420 0.000000
	CHANNELS 6 Xposition Yposition Zposition Xrotation Yrotation Zrotation
	JOINT mixamorig:Spine
	{
		OFFSET 0.006200 19.524994 -2.481800
		CHANNELS 3 Xrotation Yrotation Zrotation
		JOINT mixamorig:Spine1
		{
			OFFSET -0.000900 22.835007 -2.825400
			CHANNELS 3 Xrotation Yrotation Zrotation
			JOINT mixamorig:Spine2
			{
				OFFSET -0.020600 26.552490 -3.193300
				CHANNELS 3 Xrotation Yrotation Zrotation
				JOINT mixamorig:Neck
				{
					OFFSET -0.060000 30.701813 1.352200
					CHANNELS 3 Xrotation Yrotation Zrotation
					JOINT mixamorig:Head
					{
						OFFSET -0.087200 22.547607 3.670900
						CHANNELS 3 Xrotation Yrotation Zrotation
						JOINT mixamorig:HeadTop_End
						{
							OFFSET -0.830600 40.355194 7.893500
							CHANNELS 3 Xrotation Yrotation Zrotation
							End Site
							{
								OFFSET 0.000000 30.592346 0.000000
							}
						}
						JOINT mixamorig:RightEye
						{
							OFFSET -6.302100 18.118591 16.197100
							CHANNELS 3 Xrotation Yrotation Zrotation
							End Site
							{
								OFFSET 0.000000 30.592346 0.000000
							}
						}
						JOINT mixamorig:LeftEye
						{
							OFFSET 6.741500 18.382690 16.401899
							CHANNELS 3 Xrotation Yrotation Zrotation
							End Site
							{
								OFFSET 0.000000 30.592346 0.000000
							}
						}
					}
				}
				JOINT mixamorig:LeftShoulder
				{
					OFFSET 11.924900 18.230499 1.425400
					CHANNELS 3 Xrotation Yrotation Zrotation
					JOINT mixamorig:LeftArm
					{
						OFFSET 25.435989 -0.697632 -5.229300
						CHANNELS 3 Xrotation Yrotation Zrotation
						JOINT mixamorig:LeftForeArm
						{
							OFFSET 54.684776 0.000000 0.000000
							CHANNELS 3 Xrotation Yrotation Zrotation
							JOINT mixamorig:LeftHand
							{
								OFFSET 55.098175 0.000000 0.000000
								CHANNELS 3 Xrotation Yrotation Zrotation
								JOINT mixamorig:LeftHandMiddle1
								{
									OFFSET 23.369751 0.000000 0.000000
									CHANNELS 3 Xrotation Yrotation Zrotation
									JOINT mixamorig:LeftHandMiddle2
									{
										OFFSET 6.378677 0.000000 0.000000
										CHANNELS 3 Xrotation Yrotation Zrotation
										JOINT mixamorig:LeftHandMiddle3
										{
											OFFSET 6.148331 0.000000 0.000000
											CHANNELS 3 Xrotation Yrotation Zrotation
											JOINT mixamorig:LeftHandMiddle4
											{
												OFFSET 6.582504 0.000000 0.000000
												CHANNELS 3 Xrotation Yrotation Zrotation
												End Site
												{
													OFFSET -1.168900 6.395691 1.028606
												}
											}
										}
									}
								}
								JOINT mixamorig:LeftHandThumb1
								{
									OFFSET 7.235672 -3.848206 5.434273
									CHANNELS 3 Xrotation Yrotation Zrotation
									JOINT mixamorig:LeftHandThumb2
									{
										OFFSET 6.568451 -3.792297 3.792300
										CHANNELS 3 Xrotation Yrotation Zrotation
										JOINT mixamorig:LeftHandThumb3
										{
											OFFSET 6.063080 -3.500519 3.500518
											CHANNELS 3 Xrotation Yrotation Zrotation
											JOINT mixamorig:LeftHandThumb4
											{
												OFFSET 4.793182 -2.767334 2.767349
												CHANNELS 3 Xrotation Yrotation Zrotation
												End Site
												{
													OFFSET 0.101639 6.054260 1.275483
												}
											}
										}
									}
								}
								JOINT mixamorig:LeftHandIndex1
								{
									OFFSET 23.101074 -0.309540 4.992809
									CHANNELS 3 Xrotation Yrotation Zrotation
									JOINT mixamorig:LeftHandIndex2
									{
										OFFSET 6.226883 0.000000 0.000000
										CHANNELS 3 Xrotation Yrotation Zrotation
										JOINT mixamorig:LeftHandIndex3
										{
											OFFSET 6.094330 0.000000 0.000000
											CHANNELS 3 Xrotation Yrotation Zrotation
											JOINT mixamorig:LeftHandIndex4
											{
												OFFSET 5.482605 0.000000 0.000000
												CHANNELS 3 Xrotation Yrotation Zrotation
												End Site
												{
													OFFSET -1.427902 5.233032 0.797164
												}
											}
										}
									}
								}
								JOINT mixamorig:LeftHandRing1
								{
									OFFSET 22.299240 0.021149 -3.964172
									CHANNELS 3 Xrotation Yrotation Zrotation
									JOINT mixamorig:LeftHandRing2
									{
										OFFSET 6.321869 0.000000 0.000000
										CHANNELS 3 Xrotation Yrotation Zrotation
										JOINT mixamorig:LeftHandRing3
										{
											OFFSET 5.899796 0.000000 0.000000
											CHANNELS 3 Xrotation Yrotation Zrotation
											JOINT mixamorig:LeftHandRing4
											{
												OFFSET 6.517899 0.000000 0.000000
												CHANNELS 3 Xrotation Yrotation Zrotation
												End Site
												{
													OFFSET -1.637299 6.232208 0.980890
												}
											}
										}
									}
								}
								JOINT mixamorig:LeftHandPinky1
								{
									OFFSET 20.463791 -0.302338 -8.562233
									CHANNELS 3 Xrotation Yrotation Zrotation
									JOINT mixamorig:LeftHandPinky2
									{
										OFFSET 6.908646 0.000000 0.000000
										CHANNELS 3 Xrotation Yrotation Zrotation
										JOINT mixamorig:LeftHandPinky3
										{
											OFFSET 4.622849 0.000000 0.000000
											CHANNELS 3 Xrotation Yrotation Zrotation
											JOINT mixamorig:LeftHandPinky4
											{
												OFFSET 5.216080 0.000000 0.000000
												CHANNELS 3 Xrotation Yrotation Zrotation
												End Site
												{
													OFFSET -0.606308 5.116241 0.814926
												}
											}
										}
									}
								}
							}
						}
					}
				}
				JOINT mixamorig:RightShoulder
				{
					OFFSET -12.001300 18.284088 1.348900
					CHANNELS 3 Xrotation Yrotation Zrotation
					JOINT mixamorig:RightArm
					{
						OFFSET -25.308500 -0.751312 -5.164599
						CHANNELS 3 Xrotation Yrotation Zrotation
						JOINT mixamorig:RightForeArm
						{
							OFFSET -54.684429 0.000000 0.000000
							CHANNELS 3 Xrotation Yrotation Zrotation
							JOINT mixamorig:RightHand
							{
								OFFSET -55.150291 0.000000 0.000000
								CHANNELS 3 Xrotation Yrotation Zrotation
								JOINT mixamorig:RightHandMiddle1
								{
									OFFSET -23.317566 0.000000 0.000000
									CHANNELS 3 Xrotation Yrotation Zrotation
									JOINT mixamorig:RightHandMiddle2
									{
										OFFSET -6.378403 0.000000 0.000000
										CHANNELS 3 Xrotation Yrotation Zrotation
										JOINT mixamorig:RightHandMiddle3
										{
											OFFSET -6.148193 0.000000 0.000000
											CHANNELS 3 Xrotation Yrotation Zrotation
											JOINT mixamorig:RightHandMiddle4
											{
												OFFSET -6.583389 0.000000 0.000000
												CHANNELS 3 Xrotation Yrotation Zrotation
												End Site
												{
													OFFSET 1.171692 6.395905 1.029786
												}
											}
										}
									}
								}
								JOINT mixamorig:RightHandThumb1
								{
									OFFSET -7.190521 -3.860474 5.435846
									CHANNELS 3 Xrotation Yrotation Zrotation
									JOINT mixamorig:RightHandThumb2
									{
										OFFSET -6.567429 -3.791718 3.791708
										CHANNELS 3 Xrotation Yrotation Zrotation
										JOINT mixamorig:RightHandThumb3
										{
											OFFSET -6.062469 -3.500153 3.500166
											CHANNELS 3 Xrotation Yrotation Zrotation
											JOINT mixamorig:RightHandThumb4
											{
												OFFSET -4.792618 -2.767029 2.767022
												CHANNELS 3 Xrotation Yrotation Zrotation
												End Site
												{
													OFFSET -0.100327 6.053253 1.276754
												}
											}
										}
									}
								}
								JOINT mixamorig:RightHandIndex1
								{
									OFFSET -23.048981 -0.310791 4.992554
									CHANNELS 3 Xrotation Yrotation Zrotation
									JOINT mixamorig:RightHandIndex2
									{
										OFFSET -6.227539 0.000000 0.000000
										CHANNELS 3 Xrotation Yrotation Zrotation
										JOINT mixamorig:RightHandIndex3
										{
											OFFSET -6.095047 0.000000 0.000000
											CHANNELS 3 Xrotation Yrotation Zrotation
											JOINT mixamorig:RightHandIndex4
											{
												OFFSET -5.484772 0.000000 0.000000
												CHANNELS 3 Xrotation Yrotation Zrotation
												End Site
												{
													OFFSET 1.420593 5.237305 0.797056
												}
											}
										}
									}
								}
								JOINT mixamorig:RightHandRing1
								{
									OFFSET -22.246323 0.020569 -3.963762
									CHANNELS 3 Xrotation Yrotation Zrotation
									JOINT mixamorig:RightHandRing2
									{
										OFFSET -6.322128 0.000000 0.000000
										CHANNELS 3 Xrotation Yrotation Zrotation
										JOINT mixamorig:RightHandRing3
										{
											OFFSET -5.900024 0.000000 0.000000
											CHANNELS 3 Xrotation Yrotation Zrotation
											JOINT mixamorig:RightHandRing4
											{
												OFFSET -6.518356 0.000000 0.000000
												CHANNELS 3 Xrotation Yrotation Zrotation
												End Site
												{
													OFFSET 1.636398 6.232697 0.982186
												}
											}
										}
									}
								}
								JOINT mixamorig:RightHandPinky1
								{
									OFFSET -20.411011 -0.303314 -8.561701
									CHANNELS 3 Xrotation Yrotation Zrotation
									JOINT mixamorig:RightHandPinky2
									{
										OFFSET -6.907349 0.000000 0.000000
										CHANNELS 3 Xrotation Yrotation Zrotation
										JOINT mixamorig:RightHandPinky3
										{
											OFFSET -4.623840 0.000000 0.000000
											CHANNELS 3 Xrotation Yrotation Zrotation
											JOINT mixamorig:RightHandPinky4
											{
												OFFSET -5.218353 0.000000 0.000000
												CHANNELS 3 Xrotation Yrotation Zrotation
												End Site
												{
													OFFSET 0.602097 5.118835 0.816273
												}
											}
										}
									}
								}
							}
						}
					}
				}
			}
		}
	}
	JOINT mixamorig:LeftUpLeg
	{
		OFFSET 18.168400 -13.561905 -0.039000
		CHANNELS 3 Xrotation Yrotation Zrotation
		JOINT mixamorig:LeftLeg
		{
			OFFSET 0.577358 -80.825211 -3.695000
			CHANNELS 3 Xrotation Yrotation Zrotation
			JOINT mixamorig:LeftFoot
			{
				OFFSET -0.577356 -83.370262 -6.520700
				CHANNELS 3 Xrotation Yrotation Zrotation
				JOINT mixamorig:LeftToeBase
				{
					OFFSET 0.750401 -20.798306 25.135401
					CHANNELS 3 Xrotation Yrotation Zrotation
					JOINT mixamorig:LeftToe_End
					{
						OFFSET -0.000500 0.001200 19.917799
						CHANNELS 3 Xrotation Yrotation Zrotation
						End Site
						{
							OFFSET 0.000000 19.917805 0.000000
						}
					}
				}
			}
		}
	}
	JOINT mixamorig:RightUpLeg
	{
		OFFSET -18.162500 -13.585098 -0.041000
		CHANNELS 3 Xrotation Yrotation Zrotation
		JOINT mixamorig:RightLeg
		{
			OFFSET -0.595024 -80.945297 -3.631900
			CHANNELS 3 Xrotation Yrotation Zrotation
			JOINT mixamorig:RightFoot
			{
				OFFSET 0.595024 -83.218193 -6.561200
				CHANNELS 3 Xrotation Yrotation Zrotation
				JOINT mixamorig:RightToeBase
				{
					OFFSET -0.753601 -20.807106 25.115000
					CHANNELS 3 Xrotation Yrotation Zrotation
					JOINT mixamorig:RightToe_End
					{
						OFFSET 0.000299 0.001700 19.918200
						CHANNELS 3 Xrotation Yrotation Zrotation
						End Site
						{
							OFFSET 0.000000 19.918203 0.000000
						}
					}
				}
			}
		}
	}
}
MOTION
Frames: 4
Frame Time: 0.033333
-0.568558 198.815033 -1.072340 -9.641387 5.098578 4.667862 15.771884 -5.184120 -2.476284 2.828926 -1.297233 -0.520220 2.839535 -1.291910 -0.480963 -10.214229 -0.289805 1.928839 0.642537 3.946486 -0.951179 -0.000000 0.000000 0.000000 -0.000000 0.000000 0.000000 -0.000000 0.000000 0.000000 2.220535 -2.238815 -3.080718 7.613906 -12.208602 -71.857053 0.000011 -34.402461 0.000005 -23.660393 5.960467 2.735064 0.362544 4.206369 -18.344201 0.474606 2.311790 -23.200249 0.474612 2.311789 -23.200226 0.000001 0.000001 0.000004 -3.469772 3.607318 7.883192 9.703621 22.223533 2.891175 -5.879059 9.699144 15.674845 0.000001 0.000000 -0.000002 0.162355 3.429611 -10.498172 0.209648 1.554731 -15.358590 0.209651 1.554735 -15.358577 0.000000 -0.000001 0.000003 0.689029 4.991716 -26.673260 0.865733 3.066787 -31.521432 0.865734 3.066776 -31.521439 -0.000000 0.000000 -0.000001 0.902508 5.377881 -30.995354 1.110592 3.433626 -35.838149 1.110591 3.433633 -35.838160 -0.000001 -0.000000 0.000001 2.495461 8.164703 6.561294 -4.700612 2.795094 75.711295 -0.000005 20.011870 -0.000001 1.317997 -7.062437 -8.055898 2.592851 -6.426545 62.973443 4.946642 -4.648197 93.567328 3.098021 -4.388964 70.420582 0.000002 -0.000001 -0.000003 -1.986160 -5.435662 -3.761568 8.766476 -20.697679 -3.062099 -5.504762 -5.510961 -14.718503 -0.000003 0.000002 0.000002 2.057128 -6.108259 55.293592 5.419330 -4.594485 99.429400 3.163285 -4.411566 71.271248 0.000001 -0.000001 0.000002 2.854998 -6.549366 66.538590 4.919145 -4.649818 93.228203 2.921285 -4.322211 68.093926 0.000001 -0.000000 -0.000002 1.542110 -5.696816 47.168194 2.898961 -4.313212 67.797339 2.788733 -4.266684 66.323910 0.000000 0.000000 0.000001 -19.144501 6.326576 -0.684569 52.363222 -5.490419 -0.817232 2.774591 0.037464 -1.631669 -4.056248 -0.130539 3.290616 -0.000001 0.000001 -0.000000 -3.957491 -6.235783 -4.043477 22.270875 6.127900 3.370673 -9.004715 0.654171 -5.553180 -1.016198 -0.000000 0.000001 -0.000000 -0.000000 -0.000000 
0.273378 200.280441 8.109320 -6.422830 1.397739 5.015301 13.037455 -3.675885 -3.833023 2.216905 -0.616263 -0.851286 2.225253 -0.609915 -0.829606 -9.762040 -0.413885 1.929873 1.331139 4.113995 -1.010909 -0.000000 0.000000 -0.000000 -0.000000 0.000000 -0.000000 -0.000000 0.000000 -0.000000 2.277717 -0.959401 -3.897865 10.753937 -10.726955 -71.080932 -0.000001 -33.268352 -0.000010 -26.408969 8.612635 0.207458 0.362545 4.206368 -18.344201 0.474606 2.311790 -23.200250 0.474611 2.311790 -23.200225 0.000001 -0.000000 0.000002 -3.469770 3.607318 7.883193 9.703619 22.223532 2.891177 -5.879058 9.699142 15.674845 0.000000 0.000006 0.000000 0.162356 3.429612 -10.498173 0.209648 1.554732 -15.358594 0.209652 1.554735 -15.358579 -0.000000 -0.000000 0.000000 0.689031 4.991716 -26.673267 0.865733 3.066787 -31.521432 0.865734 3.066778 -31.521446 -0.000001 -0.000000 -0.000001 0.902509 5.377882 -30.995361 1.110591 3.433626 -35.838156 1.110593 3.433633 -35.838153 0.000001 0.000000 0.000001 2.479387 8.309563 6.449584 -3.790139 2.512094 75.745609 0.000004 20.611122 -0.000023 0.855319 -7.364011 -8.068420 2.592856 -6.426545 62.973443 4.946640 -4.648194 93.567328 3.098020 -4.388966 70.420569 0.000002 -0.000000 -0.000002 -1.986162 -5.435665 -3.761566 8.766474 -20.697681 -3.062096 -5.504760 -5.510958 -14.718501 -0.000003 0.000002 -0.000000 2.057130 -6.108258 55.293592 5.419328 -4.594485 99.429400 3.163289 -4.411565 71.271241 -0.000001 -0.000001 0.000000 2.855001 -6.549365 66.538596 4.919145 -4.649819 93.228203 2.921279 -4.322210 68.093919 -0.000001 0.000000 0.000000 1.542109 -5.696817 47.168187 2.898963 -4.313212 67.797339 2.788734 -4.266683 66.323910 0.000001 -0.000000 0.000002 -23.073786 7.439948 -1.621597 40.700769 -5.142799 0.073639 1.672720 2.883908 -4.293387 -2.407414 0.000000 -0.000002 0.000000 0.000000 0.000000 -2.314974 -5.512010 -5.298390 17.914930 5.219584 3.791706 -8.778476 4.693061 -5.069440 -1.927042 -0.000001 -0.000000 -0.000000 -0.000000 0.000000 
1.325104 200.813736 17.156036 -2.930037 -2.010056 5.099952 10.325859 -2.334244 -4.570844 1.655637 -0.058572 -1.042925 1.661320 -0.049880 -1.030304 -9.371476 -0.493648 1.845570 1.688113 4.234548 -1.155071 -0.000000 0.000000 -0.000000 -0.000000 0.000000 -0.000000 -0.000000 0.000000 -0.000000 2.332526 0.071121 -4.807359 13.508174 -8.685074 -70.654987 0.000005 -32.130026 0.000024 -29.124569 12.850624 -1.081756 0.362546 4.206368 -18.344203 0.474605 2.311790 -23.200249 0.474612 2.311790 -23.200232 -0.000001 -0.000000 0.000000 -3.469771 3.607320 7.883192 9.703618 22.223532 2.891172 -5.879060 9.699138 15.674845 0.000003 0.000000 0.000001 0.162356 3.429612 -10.498176 0.209649 1.554731 -15.358592 0.209650 1.554735 -15.358577 -0.000001 0.000000 -0.000001 0.689031 4.991716 -26.673263 0.865733 3.066788 -31.521439 0.865734 3.066777 -31.521443 0.000001 -0.000001 -0.000000 0.902508 5.377881 -30.995361 1.110592 3.433626 -35.838153 1.110592 3.433634 -35.838160 -0.000001 -0.000000 0.000001 2.441622 8.659814 6.171733 -4.782081 2.656865 75.716690 -0.000003 16.734368 0.000034 0.847346 -5.146627 -7.785722 2.592849 -6.426547 62.973449 4.946642 -4.648196 93.567335 3.098018 -4.388964 70.420569 0.000003 -0.000001 -0.000000 -1.986162 -5.435663 -3.761568 8.766473 -20.697681 -3.062097 -5.504766 -5.510960 -14.718503 -0.000002 -0.000002 0.000001 2.057128 -6.108259 55.293595 5.419329 -4.594485 99.429393 3.163285 -4.411566 71.271241 0.000001 -0.000000 -0.000002 2.855002 -6.549364 66.538590 4.919148 -4.649820 93.228196 2.921281 -4.322210 68.093919 0.000001 -0.000000 0.000001 1.542112 -5.696816 47.168190 2.898959 -4.313212 67.797339 2.788734 -4.266680 66.323910 -0.000001 0.000000 -0.000000 -25.976867 6.003834 -2.356418 26.370766 -2.560197 1.631248 1.710057 6.918080 -7.417409 -3.644856 0.000002 -0.000001 -0.000000 0.000000 -0.000000 -1.588481 -4.940178 -6.324112 14.590744 4.073420 4.161953 -8.925633 8.812445 -4.304367 -2.825706 0.000006 0.000000 -0.000000 0.000000 0.000000 
2.456440 199.844833 26.492439 -0.169700 -5.014856 5.250100 8.250453 -1.033930 -4.938348 1.340078 0.474726 -1.083834 1.343396 0.486647 -1.075740 -9.155733 -0.564849 1.705686 1.803479 4.234820 -1.566068 0.000000 0.000000 0.000000 0.000000 0.000000 0.000000 0.000000 0.000000 0.000000 2.400782 1.078983 -5.719689 15.322510 -6.368421 -70.595223 0.000009 -30.852064 0.000019 -30.146037 16.624532 -2.490820 0.362545 4.206367 -18.344201 0.474606 2.311790 -23.200250 0.474611 2.311790 -23.200226 -0.000000 -0.000001 0.000001 -3.469773 3.607316 7.883191 9.703616 22.223530 2.891174 -5.879062 9.699144 15.674844 0.000001 0.000000 0.000003 0.162356 3.429610 -10.498175 0.209648 1.554732 -15.358596 0.209647 1.554736 -15.358573 -0.000000 0.000001 -0.000005 0.689031 4.991712 -26.673265 0.865730 3.066788 -31.521439 0.865731 3.066778 -31.521439 -0.000000 -0.000001 0.000002 0.902506 5.377880 -30.995361 1.110592 3.433628 -35.838156 1.110594 3.433633 -35.838153 -0.000002 0.000000 0.000001 2.402236 9.044552 5.860040 -3.295727 2.077789 75.153179 0.000001 18.617882 0.000000 0.277652 -5.964820 -7.337545 2.592854 -6.426546 62.973443 4.946640 -4.648194 93.567328 3.098019 -4.388966 70.420575 -0.000001 0.000001 -0.000001 -1.986160 -5.435663 -3.761568 8.766475 -20.697679 -3.062094 -5.504763 -5.510959 -14.718503 -0.000002 0.000000 0.000003 2.057130 -6.108258 55.293592 5.419326 -4.594484 99.429400 3.163290 -4.411564 71.271248 0.000001 0.000000 -0.000000 2.855002 -6.549363 66.538590 4.919145 -4.649814 93.228209 2.921282 -4.322209 68.093919 -0.000002 0.000000 -0.000002 1.542112 -5.696816 47.168194 2.898961 -4.313211 67.797339 2.788734 -4.266680 66.323910 -0.000002 -0.000000 -0.000001 -28.054153 1.679758 -2.471267 12.475971 1.358765 3.301129 0.843833 12.499632 -10.089770 -3.938964 0.000000 -0.000000 -0.000000 0.000000 -0.000001 -1.781178 -4.346315 -7.482048 14.962911 2.825365 4.374282 -11.511286 12.768558 -3.204252 -3.285356 0.000006 0.000001 -0.000000 0.000000 0.000000 
